<?xml version="1.0"?>
<svg version="1.1" xmlns="http://www.w3.org/2000/svg" width="200" height="36" style=""><path fill="#ed7615" d="M26.4343359375,15.5595703125q-0.02734375-0.3623046875,0.0615234375-0.68359375t0.3349609375-0.533203125t0.833984375-0.2119140625q0.13671875,0,0.3349609375,0.02734375t0.396484375,0.0888671875t0.3212890625,0.1708984375t0.123046875,0.30078125q0,0.505859375,0.0341796875,1.3330078125t0.0888671875,1.72265625t0.1025390625,1.75t0.0888671875,1.3876953125q1.06640625-0.0546875,2.146484375-0.0546875t2.1328125-0.0546875l1.88671875-0.0546875l0-1.353515625q0-2.26953125-0.0888671875-4.5458984375t-0.3076171875-4.5458984375q0-0.1640625,0.13671875-0.2666015625t0.3212890625-0.1572265625t0.3828125-0.068359375t0.3076171875-0.013671875q0.314453125,0,0.6767578125,0.095703125t0.4169921875,0.41015625l0.08203125,0.587890625q0.341796875,2.4609375,0.46484375,4.8671875t0.177734375,4.8125q0.1640625,0.02734375,0.3486328125,0.0888671875t0.3759765625,0.1162109375q0.13671875,0.0546875,0.3896484375,0.1640625t0.2529296875,0.341796875q0,0.21875-0.19140625,0.341796875t-0.4306640625,0.1845703125t-0.46484375,0.0751953125t-0.2802734375,0.013671875q0.02734375,1.01171875,0.02734375,2.0166015625l0,2.0166015625l0,4.416015625l0,2.4609375q0,0.1640625-0.1572265625,0.2939453125t-0.3759765625,0.2119140625t-0.4580078125,0.109375t-0.4306640625,0.02734375t-0.451171875-0.02734375t-0.46484375-0.109375t-0.3623046875-0.205078125t-0.1572265625-0.30078125l0-0.587890625q0.0546875-2.59765625,0.123046875-5.1474609375t0.13671875-5.1201171875q-1.490234375,0.0546875-3.0283203125,0.068359375t-3.0556640625,0.068359375q0.1640625,1.927734375,0.3759765625,3.8486328125t0.4443359375,3.8486328125q0,0.1640625-0.1572265625,0.2939453125t-0.369140625,0.2119140625t-0.451171875,0.109375t-0.4306640625,0.02734375q-0.396484375,0-0.8681640625-0.13671875t-0.5263671875-0.505859375q-0.1640625-1.44921875-0.3076171875-3.19921875t-0.2529296875-3.5751953125t-0.1708984375-3.5751953125t-0.0615234375-3.171875q0-0.341796875-0.02734375-0.7041015625z M42.05677734375,27.4609375q0-0.95703125,0.2119140625-2.255859375t0.7177734375-2.4609375t1.3330078125-1.9755859375t2.0849609375-0.8134765625q1.17578125,0,1.763671875,0.6767578125t0.587890625,1.8251953125q0,0.751953125-0.2802734375,1.6474609375t-0.7998046875,1.6953125t-1.23046875,1.3330078125t-1.5859375,0.533203125l-0.35546875-0.02734375q0,0.369140625,0.109375,0.9912109375t0.3212890625,1.2373046875t0.546875,1.080078125t0.8134765625,0.46484375q0.697265625,0,1.33984375-0.560546875t1.216796875-1.244140625t1.06640625-1.244140625t0.90234375-0.560546875q0.21875,0,0.451171875,0.068359375t0.259765625,0.3828125q0,0.19140625-0.1025390625,0.314453125t-0.1845703125,0.2734375q-0.423828125,0.724609375-0.9228515625,1.380859375t-1.1279296875,1.189453125t-1.3740234375,0.8408203125t-1.6474609375,0.3076171875q-1.17578125,0-1.955078125-0.4169921875t-1.2578125-1.12109375t-0.6904296875-1.626953125t-0.2119140625-1.9345703125z M44.50404296875,26.421875l0.3828125,0.341796875q0.2734375,0.24609375,0.546875,0.109375t0.4921875-0.4990234375t0.4033203125-0.8955078125t0.328125-1.09375t0.2119140625-1.09375t0.068359375-0.888671875l0-0.46484375t-0.041015625-0.4921875t-0.1435546875-0.3896484375t-0.3212890625-0.1982421875q-0.068359375-0.013671875-0.123046875-0.013671875q-0.46484375,0-0.79296875,0.587890625q-0.35546875,0.65625-0.57421875,1.5927734375t-0.314453125,1.9208984375t-0.123046875,1.4765625z M53.481953125,31.75390625q0-0.396484375,0.0341796875-0.833984375t0.0615234375-0.8203125l0.08203125-2.05078125q0.13671875-2.4609375,0.3349609375-4.83984375t0.3349609375-4.8125q0.08203125-1.33984375,0.123046875-2.6318359375t0.123046875-2.6318359375q-0.0546875-0.109375-0.0546875-0.150390625q0-0.19140625,0.1435546875-0.30078125t0.3349609375-0.1845703125t0.4033203125-0.1025390625t0.3212890625-0.02734375l0.314453125,0q0.423828125,0.0546875,0.615234375,0.2666015625t0.24609375,0.505859375t0.02734375,0.62890625t-0.02734375,0.6220703125q0,1.982421875-0.095703125,4.0400390625t-0.21875,4.12890625t-0.2255859375,4.142578125t-0.1025390625,4.0947265625l0,0.95703125q0,0.642578125-0.3623046875,0.84765625t-1.0048828125,0.205078125q-0.560546875,0-0.984375-0.24609375t-0.423828125-0.806640625z M59.75283203125,31.75390625q0-0.396484375,0.0341796875-0.833984375t0.0615234375-0.8203125l0.08203125-2.05078125q0.13671875-2.4609375,0.3349609375-4.83984375t0.3349609375-4.8125q0.08203125-1.33984375,0.123046875-2.6318359375t0.123046875-2.6318359375q-0.0546875-0.109375-0.0546875-0.150390625q0-0.19140625,0.1435546875-0.30078125t0.3349609375-0.1845703125t0.4033203125-0.1025390625t0.3212890625-0.02734375l0.314453125,0q0.423828125,0.0546875,0.615234375,0.2666015625t0.24609375,0.505859375t0.02734375,0.62890625t-0.02734375,0.6220703125q0,1.982421875-0.095703125,4.0400390625t-0.21875,4.12890625t-0.2255859375,4.142578125t-0.1025390625,4.0947265625l0,0.95703125q0,0.642578125-0.3623046875,0.84765625t-1.0048828125,0.205078125q-0.560546875,0-0.984375-0.24609375t-0.423828125-0.806640625z M65.7502734375,27.16015625q0-0.779296875,0.1982421875-1.6064453125t0.62890625-1.490234375t1.0869140625-1.080078125t1.5859375-0.4169921875q0.697265625,0,1.4697265625,0.2392578125t1.4150390625,0.68359375t1.0458984375,1.0869140625t0.4033203125,1.435546875q0,0.95703125-0.3486328125,1.818359375t-0.9775390625,1.5380859375t-1.4697265625,1.06640625t-1.8251953125,0.3896484375q-0.806640625,0-1.408203125-0.2939453125t-1.0048828125-0.7861328125t-0.6015625-1.162109375t-0.1982421875-1.421875z M67.7600390625,27.1328125q0,0.24609375,0.0751953125,0.724609375t0.2255859375,0.9365234375t0.3896484375,0.79296875t0.5810546875,0.3076171875q0.724609375-0.08203125,1.1962890625-0.4716796875t0.765625-0.9501953125t0.41015625-1.216796875t0.1162109375-1.244140625q0-0.751953125-0.2939453125-1.2578125t-0.9638671875-0.8203125q0,0.02734375,0.02734375,0.02734375t0.02734375-0.02734375l-0.341796875-0.08203125q-0.13671875-0.0546875-0.3349609375-0.123046875t-0.3896484375-0.30078125q-0.533203125,0.19140625-0.8271484375,0.4921875t-0.4443359375,0.7314453125t-0.1845703125,1.0322265625t-0.0341796875,1.44921875z M76.10904296875,11.314453125q0-0.2734375,0.423828125-0.3896484375t0.697265625-0.1162109375q0.314453125,0,0.6904296875,0.08203125t0.4580078125,0.423828125q0.396484375,1.599609375,0.6083984375,3.2607421875t0.3212890625,3.3427734375t0.177734375,3.3427734375t0.150390625,3.2880859375q0.369140625-1.626953125,0.7587890625-3.2333984375t1.0185546875-3.2060546875l0-1.09375q0-0.697265625,0.4853515625-1.0048828125t1.3056640625-0.3076171875q0.08203125,0,0.3759765625,0.041015625t0.2939453125,0.2734375q-0.0546875,0.1640625-0.1298828125,0.314453125t-0.0751953125,0.328125q0,2.078125,0.4921875,4.2587890625t0.970703125,4.2451171875q0.2734375-1.763671875,0.62890625-3.513671875t0.73828125-3.486328125q0.505859375-2.32421875,0.7724609375-3.8623046875t0.505859375-2.43359375t0.51953125-1.271484375t0.7861328125-0.3759765625q0.314453125-0.02734375,0.587890625,0.109375t0.21875,0.451171875q-0.984375,4.7578125-1.8388671875,9.54296875t-1.7431640625,9.5703125q0,0.2734375,0.095703125,0.642578125t0.095703125,0.65625q0,0.1640625-0.150390625,0.2734375t-0.3623046875,0.1845703125t-0.46484375,0.1025390625t-0.4443359375,0.02734375q-0.423828125,0-0.888671875-0.1298828125t-0.6015625-0.7451171875q-0.478515625-2.1328125-0.8818359375-4.2861328125t-0.7451171875-4.3408203125q-0.109375,0.505859375-0.205078125,1.025390625t-0.177734375,1.052734375q-0.396484375,2.32421875-0.875,4.6484375t-0.478515625,4.703125q0,0.587890625-0.24609375,0.7587890625t-0.833984375,0.1708984375q-0.451171875,0-0.765625-0.150390625q-0.24609375-0.13671875-0.46484375-0.24609375q-0.19140625-0.109375-0.3486328125-0.2529296875t-0.1572265625-0.2802734375q-0.21875-2.966796875-0.3076171875-5.892578125t-0.1982421875-5.892578125q-0.109375-2.666015625-0.3212890625-5.3251953125t-0.4716796875-5.2841796875z M92.442421875,27.16015625q0-0.779296875,0.1982421875-1.6064453125t0.62890625-1.490234375t1.0869140625-1.080078125t1.5859375-0.4169921875q0.697265625,0,1.4697265625,0.2392578125t1.4150390625,0.68359375t1.0458984375,1.0869140625t0.4033203125,1.435546875q0,0.95703125-0.3486328125,1.818359375t-0.9775390625,1.5380859375t-1.4697265625,1.06640625t-1.8251953125,0.3896484375q-0.806640625,0-1.408203125-0.2939453125t-1.0048828125-0.7861328125t-0.6015625-1.162109375t-0.1982421875-1.421875z M94.4521875,27.1328125q0,0.24609375,0.0751953125,0.724609375t0.2255859375,0.9365234375t0.3896484375,0.79296875t0.5810546875,0.3076171875q0.724609375-0.08203125,1.1962890625-0.4716796875t0.765625-0.9501953125t0.41015625-1.216796875t0.1162109375-1.244140625q0-0.751953125-0.2939453125-1.2578125t-0.9638671875-0.8203125q0,0.02734375,0.02734375,0.02734375t0.02734375-0.02734375l-0.341796875-0.08203125q-0.13671875-0.0546875-0.3349609375-0.123046875t-0.3896484375-0.30078125q-0.533203125,0.19140625-0.8271484375,0.4921875t-0.4443359375,0.7314453125t-0.1845703125,1.0322265625t-0.0341796875,1.44921875z M102.80119140625,23.072265625q0-0.560546875,0.1982421875-0.943359375t0.8408203125-0.3828125q0.24609375,0,0.615234375,0.0751953125t0.423828125,0.3759765625q0.13671875,0.806640625,0.150390625,1.75t0.095703125,1.77734375q0.314453125-0.615234375,0.806640625-1.326171875t1.12109375-1.3125t1.3671875-0.998046875t1.50390625-0.396484375q0.0546875,0,0.205078125,0.041015625t0.2802734375,0.1162109375t0.1572265625,0.1708984375t-0.150390625,0.177734375q-0.0546875,0.1640625-0.232421875,0.1982421875t-0.314453125,0.0341796875q-0.08203125,0-0.259765625-0.068359375q-1.01171875,0.533203125-1.72265625,1.44921875t-1.162109375,2.0302734375t-0.65625,2.3515625t-0.205078125,2.4130859375q0,0.587890625-0.2666015625,0.7109375t-0.8544921875,0.123046875q-0.314453125,0-0.6630859375-0.068359375t-0.4853515625-0.4375q-0.24609375-0.779296875-0.4033203125-1.791015625t-0.2392578125-2.0849609375t-0.1162109375-2.1123046875t-0.0341796875-1.873046875z M112.5173828125,31.75390625q0-0.396484375,0.0341796875-0.833984375t0.0615234375-0.8203125l0.08203125-2.05078125q0.13671875-2.4609375,0.3349609375-4.83984375t0.3349609375-4.8125q0.08203125-1.33984375,0.123046875-2.6318359375t0.123046875-2.6318359375q-0.0546875-0.109375-0.0546875-0.150390625q0-0.19140625,0.1435546875-0.30078125t0.3349609375-0.1845703125t0.4033203125-0.1025390625t0.3212890625-0.02734375l0.314453125,0q0.423828125,0.0546875,0.615234375,0.2666015625t0.24609375,0.505859375t0.02734375,0.62890625t-0.02734375,0.6220703125q0,1.982421875-0.095703125,4.0400390625t-0.21875,4.12890625t-0.2255859375,4.142578125t-0.1025390625,4.0947265625l0,0.95703125q0,0.642578125-0.3623046875,0.84765625t-1.0048828125,0.205078125q-0.560546875,0-0.984375-0.24609375t-0.423828125-0.806640625z M118.78826171875,26.736328125q0-1.06640625,0.2255859375-1.9345703125t0.7177734375-1.4697265625t1.2919921875-0.9365234375t1.9482421875-0.3349609375q0.642578125,0,1.3125,0.1708984375t1.1484375,0.6357421875q0-0.2734375,0.0546875-1.1279296875t0.13671875-1.9892578125t0.1708984375-2.37890625t0.1572265625-2.310546875t0.123046875-1.791015625t0.08203125-0.8203125q0.13671875-0.396484375,0.505859375-0.4716796875t0.697265625-0.0751953125q0.861328125,0,1.0595703125,0.2734375t0.1982421875,1.09375q0,2.994140625-0.2666015625,5.9609375t-0.2666015625,5.9609375q0,1.927734375,0.0751953125,3.8759765625t0.5400390625,3.8349609375l0.150390625,0.13671875l0.08203125,0.24609375l-0.205078125,0.314453125q-0.51953125,0.328125-1.203125,0.328125l-0.0546875,0q-0.697265625,0-1.28515625-0.328125q-0.21875-0.13671875-0.3623046875-0.8134765625t-0.2255859375-1.490234375t-0.123046875-1.5654296875t-0.068359375-1.06640625q-0.478515625,1.09375-1.3056640625,1.8798828125t-2.0849609375,0.7861328125q-0.984375,0-1.61328125-0.423828125t-0.9775390625-1.080078125t-0.4921875-1.4697265625t-0.1435546875-1.6201171875z M120.44255859375,26.818359375q0,0.314453125,0.0751953125,0.9296875t0.2392578125,1.23046875t0.4580078125,1.09375t0.7724609375,0.478515625q0.642578125-0.314453125,1.162109375-1.0458984375t0.8955078125-1.61328125t0.587890625-1.763671875t0.2119140625-1.5244140625q0-0.806640625-0.587890625-1.33984375t-1.408203125-0.533203125q-0.24609375,0-0.4990234375,0.095703125t-0.4716796875,0.21875q-0.505859375,0.478515625-0.7861328125,0.8681640625t-0.423828125,0.806640625t-0.1845703125,0.9228515625t-0.041015625,1.17578125z"/><path fill="#" d="M136.457578125,19.39453125l0.08203125-0.1640625q0.21875-0.19140625,0.669921875-0.57421875t0.984375-0.8681640625t1.107421875-1.0185546875t1.0322265625-1.0390625t0.751953125-0.9501953125t0.2939453125-0.7587890625q0-0.1640625,0.1572265625-0.2939453125t0.35546875-0.2119140625t0.4033203125-0.109375t0.35546875-0.02734375q0.314453125,0,0.7177734375,0.095703125t0.5400390625,0.46484375q-0.314453125,2.720703125-0.5810546875,5.3388671875t-0.2666015625,5.3251953125q0,1.845703125,0.2255859375,3.6845703125t0.2255859375,3.6298828125q0,0.21875-0.1982421875,0.3486328125t-0.4443359375,0.1982421875t-0.5126953125,0.095703125t-0.4169921875,0.02734375q-0.642578125,0-0.9501953125-0.2255859375t-0.4306640625-0.57421875t-0.123046875-0.79296875t-0.02734375-0.9228515625q-0.0546875-0.984375-0.1025390625-1.9482421875t-0.0478515625-1.9482421875q0-2.2421875,0.1162109375-4.4638671875t0.4716796875-4.4365234375q-0.314453125,0.314453125-0.7451171875,0.7314453125t-0.9296875,0.806640625t-1.0185546875,0.65625t-0.970703125,0.2666015625q-0.13671875,0-0.4169921875-0.0546875t-0.3076171875-0.287109375z M146.70697265625,18.109375q0-0.95703125,0.587890625-1.818359375t1.4560546875-1.4970703125t1.8935546875-1.01171875t1.88671875-0.3759765625q1.01171875,0,1.7978515625,0.3623046875t1.3330078125,0.9775390625t0.8408203125,1.4697265625t0.2939453125,1.8115234375q0,1.736328125-0.6630859375,3.390625t-1.55859375,3.2333984375t-1.845703125,3.14453125t-1.5654296875,3.1376953125l0.95703125,0.02734375q0.423828125,0,0.8544921875-0.02734375t0.8271484375-0.1640625q0.478515625-0.451171875,1.2578125-0.451171875q0.314453125,0,0.7587890625,0.08203125t0.5263671875,0.478515625q-0.02734375,0-0.02734375,0.109375q0,0.533203125-0.642578125,0.7861328125t-1.4970703125,0.3486328125t-1.6953125,0.095703125l-1.2099609375,0l-0.7109375,0t-0.998046875-0.068359375t-0.8955078125-0.205078125t-0.4716796875-0.451171875q0.587890625-1.681640625,1.626953125-3.390625t2.0712890625-3.4111328125t1.791015625-3.4248046875t0.7587890625-3.486328125q0-0.341796875-0.1162109375-0.916015625t-0.396484375-1.12109375t-0.751953125-0.9228515625t-1.2099609375-0.3486328125q-0.669921875,0.0546875-1.244140625,0.4443359375t-1.0322265625,0.9501953125t-0.779296875,1.2236328125t-0.4716796875,1.2509765625q0,0.21875,0.0888671875,0.4443359375t0.0888671875,0.4443359375t-0.2939453125,0.2802734375t-0.4443359375,0.0615234375q-0.560546875,0-0.8681640625-0.46484375t-0.3076171875-0.998046875z M153.65228515625,30.8515625q0.109375,0,0.150390625-0.02734375q-0.095703125,0-0.150390625,0.02734375z M159.5950390625,17.220703125q0-0.806640625,0.8544921875-1.5380859375t2.0166015625-1.2783203125t2.337890625-0.8681640625t1.818359375-0.3212890625q0.615234375,0,1.17578125,0.150390625t0.998046875,0.4853515625t0.7041015625,0.8271484375t0.2666015625,1.162109375q0,0.984375-0.505859375,2.064453125t-1.244140625,2.1123046875t-1.5517578125,1.982421875t-1.4013671875,1.6611328125q0.697265625,0.1640625,1.3671875,0.4853515625t1.189453125,0.8134765625t0.8408203125,1.12109375t0.3212890625,1.408203125q0,1.01171875-0.4169921875,2.078125t-1.1484375,1.9345703125t-1.681640625,1.4287109375t-2.0439453125,0.560546875q-0.478515625,0-0.8955078125-0.1025390625t-0.6494140625-0.2392578125q-0.314453125-0.1640625-0.533203125-0.4169921875t-0.21875-0.6494140625q0-0.478515625,0.3486328125-0.6015625t0.7451171875-0.123046875q0.109375,0,0.3212890625,0.0546875t0.423828125,0.13671875t0.3759765625,0.1982421875t0.19140625,0.2529296875q0.505859375-0.314453125,0.943359375-0.8271484375t0.7587890625-1.1142578125t0.5126953125-1.2509765625t0.19140625-1.2373046875q0-0.833984375-0.3076171875-1.380859375t-0.751953125-0.8681640625t-0.9775390625-0.478515625t-0.984375-0.2666015625t-0.7587890625-0.232421875t-0.3076171875-0.35546875q0-0.0546875,0.068359375-0.1640625q0.423828125-0.423828125,0.9912109375-1.025390625t1.1689453125-1.3125t1.189453125-1.4833984375t1.052734375-1.544921875t0.7587890625-1.4970703125t0.2939453125-1.3125q0-0.505859375-0.1845703125-0.984375t-0.6904296875-0.478515625q-0.396484375,0-1.244140625,0.328125t-1.7021484375,0.7998046875t-1.5244140625,1.0185546875t-0.669921875,0.970703125q0.13671875,0.0546875,0.259765625,0.1640625t0.123046875,0.259765625q0,0.109375-0.109375,0.19140625t-0.2529296875,0.123046875t-0.2802734375,0.0546875t-0.21875,0.013671875q-0.19140625,0-0.4169921875-0.0546875t-0.4375-0.1640625t-0.35546875-0.2802734375t-0.1435546875-0.3896484375z"/></svg>
